# Blender 3.3.0
# www.blender.org
mtllib keybody.mtl
o Cylinder
v 0.540268 0.351542 -0.076964
v 0.451541 0.238339 -0.076964
v 0.343425 0.145436 -0.076964
v 0.220077 0.076402 -0.076964
v 0.086237 0.033892 -0.076964
v -0.052952 0.019538 -0.076964
v -0.192141 0.033892 -0.076964
v -0.325981 0.076402 -0.076964
v -0.449329 0.145436 -0.076964
v -0.557444 0.238339 -0.076964
v 0.606199 0.480695 -0.076964
v 0.540268 0.351542 0.067329
v 0.606199 0.480695 0.067329
v 0.451541 0.238339 0.067329
v 0.343425 0.145436 0.067329
v 0.220077 0.076402 0.067329
v 0.086237 0.033892 0.067329
v -0.052952 0.019538 0.067329
v -0.192141 0.033892 0.067329
v -0.325981 0.076402 0.067329
v -0.449329 0.145436 0.067329
v -0.557444 0.238339 0.067329
v -0.052952 0.766573 0.067329
v -0.052952 0.766573 -0.076964
v -0.245013 0.565473 -0.076964
v 0.399348 0.570407 -0.076964
v -0.171537 0.321855 -0.076964
v 0.152480 0.237827 -0.076964
v 0.423809 0.450182 -0.076964
v 0.189965 0.661218 -0.076964
v 0.017590 0.535716 -0.076964
v 0.172397 0.553350 -0.076964
v -0.214828 0.558254 -0.097180
v -0.065206 0.714917 -0.097180
v -0.150216 0.344028 -0.097180
v 0.146386 0.267109 -0.097180
v 0.394227 0.461081 -0.097180
v 0.375858 0.551367 -0.097180
v 0.210895 0.622912 -0.097180
v -0.001536 0.506549 -0.097180
v 0.195600 0.529004 -0.097180
v -0.245013 0.565473 -0.087746
v -0.052952 0.766573 -0.087746
v -0.171537 0.321855 -0.087746
v 0.152480 0.237827 -0.087746
v 0.423809 0.450182 -0.087746
v 0.399348 0.570407 -0.087746
v 0.189965 0.661218 -0.087746
v 0.017590 0.535716 -0.087746
v 0.172397 0.553350 -0.087746
v 0.067245 0.514384 -0.097180
v 0.141667 0.522861 -0.097180
v 0.130844 0.358723 -0.097180
v -0.037932 0.625659 -0.097180
v -0.016654 0.556024 -0.097180
v -0.116398 0.520103 -0.097180
v 0.067245 0.514384 -0.063980
v 0.141667 0.522861 -0.063980
v 0.130844 0.358723 -0.063980
v -0.037932 0.625659 -0.063980
v -0.016654 0.556024 -0.063980
v -0.116398 0.520103 -0.063980
vn -0.4884 -0.8726 -0.0000
vn 0.8907 -0.4547 -0.0000
vn -0.0000 -0.0000 1.0000
vn -0.3027 -0.9531 -0.0000
vn -0.1026 -0.9947 -0.0000
vn 0.1026 -0.9947 -0.0000
vn 0.3027 -0.9531 -0.0000
vn 0.4884 -0.8726 -0.0000
vn 0.6517 -0.7584 -0.0000
vn 0.7871 -0.6169 -0.0000
vn -0.6517 -0.7584 -0.0000
vn 0.3979 0.9174 -0.0000
vn -0.7232 0.6907 -0.0000
vn -0.0000 -0.0000 -1.0000
vn -0.1132 0.9936 -0.0000
vn 0.9799 0.1994 -0.0000
vn -0.9574 -0.2888 -0.0000
vn -0.9870 0.1608 -0.0000
vn -0.2510 -0.9680 -0.0000
vn 0.9563 0.2922 -0.0000
vn 0.6163 -0.7875 -0.0000
vn -0.2400 0.2292 -0.9433
vn -0.3178 -0.0958 -0.9433
vn -0.0833 -0.3213 -0.9433
vn 0.2046 -0.2614 -0.9433
vn 0.3252 0.0662 -0.9433
vn 0.1321 0.3045 -0.9433
vn 0.3174 0.0970 -0.9433
vn -0.0376 0.3298 -0.9433
vn -0.3276 0.0534 -0.9433
vn -0.3388 0.9408 -0.0000
vn 0.1132 -0.9936 -0.0000
vn -0.9978 0.0658 -0.0000
vn 0.8026 -0.5966 -0.0000
vn -0.9563 -0.2922 -0.0000
vn 0.9257 0.3782 -0.0000
vt 0.436087 0.685567
vt 0.867363 0.615106
vt 0.645117 0.670492
vt 0.867363 0.552580
vt 0.576472 0.615807
vt 0.867363 0.479899
vt 0.520301 0.549385
vt 0.867363 0.399854
vt 0.478763 0.473778
vt 0.867363 0.315523
vt 0.453454 0.391892
vt 0.867363 0.230147
vt 0.445348 0.306874
vt 0.867363 0.147006
vt 0.454755 0.221991
vt 0.867363 0.069294
vt 0.481314 0.140505
vt 0.867363 0.000000
vt 0.284300 0.597499
vt 0.524004 0.065548
vt 0.284300 0.659943
vt 0.581185 0.000000
vt 0.372368 0.685567
vt 0.873944 0.416493
vt 0.723599 0.711339
vt 0.436087 0.597499
vt 0.008557 0.084798
vt 0.779295 0.615106
vt 0.372368 0.597499
vt 0.033900 0.000000
vt 0.962012 0.416493
vt 0.000000 0.172167
vt 0.779295 0.552580
vt 0.008557 0.258748
vt 0.779295 0.479899
vt 0.033900 0.341215
vt 0.779295 0.399854
vt 0.075055 0.416398
vt 0.779295 0.315523
vt 0.130439 0.481408
vt 0.779295 0.230147
vt 0.197926 0.533747
vt 0.779295 0.147006
vt 0.274921 0.571403
vt 0.779295 0.069294
vt 0.779295 0.000000
vt 0.358465 0.592929
vt 0.372368 0.597499
vt 0.445348 0.597499
vt 0.372368 0.659943
vt 0.445348 0.151680
vt 0.962012 0.000000
vt 0.372368 0.953144
vt 0.873944 0.000000
vt 0.557444 0.711339
vt 0.284300 0.953144
vt 0.438767 0.744832
vt 0.779295 0.192223
vt 0.284300 0.841522
vt 0.779295 0.585515
vt 0.680851 0.785888
vt 0.873944 0.285792
vt 0.630332 0.235921
vt 0.284300 0.689382
vt 0.867363 0.416493
vt 0.577556 0.433281
vt 0.867363 0.606096
vt 0.705837 0.599878
vt 0.680851 0.711339
vt 0.867363 0.786880
vt 0.557445 0.872931
vt 0.694013 0.775935
vt 0.873944 0.153490
vt 0.674270 0.804456
vt 0.445348 0.806854
vt 0.438767 0.597499
vt 0.674270 0.711339
vt 0.492800 0.889264
vt 0.694013 0.711339
vt 0.121662 0.616232
vt 0.245677 0.662007
vt 0.017435 0.704391
vt 0.046385 0.889145
vt 0.215128 0.980869
vt 0.261206 0.948677
vt 0.261206 0.838942
vt 0.144500 0.748217
vt 0.204928 0.853161
vt 0.277719 0.841522
vt 0.118527 0.597499
vt 0.277719 0.953144
vt 0.445348 0.744832
vt 0.277719 0.656258
vt 0.277719 0.689382
vt 0.873944 0.416493
vt 0.000000 0.697753
vt 0.873944 0.606096
vt 0.031626 0.899584
vt 0.687432 0.711339
vt 0.873944 0.786880
vt 0.216361 1.000000
vt 0.687432 0.785888
vt 0.867363 0.285792
vt 0.277719 0.957133
vt 0.687432 0.775935
vt 0.867363 0.153490
vt 0.277719 0.817849
vt 0.680851 0.804456
vt 0.445348 0.597499
vt 0.165622 0.751772
vt 0.680851 0.711339
vt 0.687432 0.711339
vt 0.213075 0.834183
vt 0.165584 0.784832
vt 0.654007 0.711339
vt 0.436635 0.787755
vt 0.188396 0.824451
vt 0.654007 0.757051
vt 0.779295 0.714277
vt 0.093892 0.858214
vt 0.779295 0.615106
vt 0.436635 0.685567
vt 0.202337 0.698936
vt 0.633743 0.767058
vt 0.654007 0.754842
vt 0.168524 0.727747
vt 0.593216 0.769974
vt 0.654007 0.711339
vt 0.124202 0.680608
vt 0.593216 0.711339
vt 0.633743 0.711339
vt 0.416372 0.788156
vt 0.633743 0.711339
vt 0.416372 0.787755
vt 0.372368 0.775759
vt 0.633743 0.757051
vt 0.799559 0.714277
vt 0.799559 0.615106
vt 0.416372 0.685567
vt 0.593216 0.791594
vt 0.613480 0.767058
vt 0.674270 0.754842
vt 0.613480 0.769974
vt 0.557445 0.765255
vt 0.674270 0.711339
vt 0.593216 0.711339
vt 0.613480 0.711339
s 0
usemtl Material.002
f 9/18/1 8/16/1 20/45/1 21/46/1
f 13/29/2 12/26/2 1/1/2 11/23/2
f 12/27/3 13/30/3 23/51/3 22/49/3 21/47/3 20/44/3 19/42/3 18/40/3 17/38/3 16/36/3 15/34/3 14/32/3
f 8/16/4 7/14/4 19/43/4 20/45/4
f 7/14/5 6/12/5 18/41/5 19/43/5
f 6/12/6 5/10/6 17/39/6 18/41/6
f 5/10/7 4/8/7 16/37/7 17/39/7
f 4/8/8 3/6/8 15/35/8 16/37/8
f 3/6/9 2/4/9 14/33/9 15/35/9
f 2/4/10 1/2/10 12/28/10 14/33/10
f 10/21/11 9/19/11 21/48/11 22/50/11
f 23/52/12 13/31/12 11/24/12 26/62/12 30/73/12 24/54/12
f 10/21/13 22/50/13 23/53/13 24/56/13 25/59/13
f 2/5/14 3/7/14 4/9/14 5/11/14 6/13/14 7/15/14 8/17/14 9/20/14 10/22/14 25/58/14 27/63/14 28/66/14 29/68/14 26/60/14 11/25/14 1/3/14
f 38/85/14 37/84/14 36/83/14 35/82/14 33/80/14 34/81/14 54/123/14 56/129/14 55/126/14 40/87/14 51/114/14 53/120/14 52/117/14 41/88/14 39/86/14
f 31/74/15 32/77/15 50/111/15 49/108/15
f 30/71/14 32/78/14 31/75/14 24/55/14
f 26/61/16 29/69/16 46/99/16 47/102/16
f 27/64/17 25/59/17 42/89/17 44/94/17
f 32/79/18 30/72/18 48/105/18 50/112/18
f 30/73/12 26/62/12 47/103/12 48/106/12
f 28/67/19 27/65/19 44/95/19 45/97/19
f 25/59/13 24/56/13 43/91/13 42/89/13
f 24/57/20 31/76/20 49/109/20 43/92/20
f 29/70/21 28/67/21 45/97/21 46/100/21
f 34/81/22 33/80/22 42/90/22 43/93/22
f 33/80/23 35/82/23 44/96/23 42/90/23
f 35/82/24 36/83/24 45/98/24 44/96/24
f 36/83/25 37/84/25 46/101/25 45/98/25
f 37/84/26 38/85/26 47/104/26 46/101/26
f 38/85/27 39/86/27 48/107/27 47/104/27
f 40/87/28 55/126/28 54/123/28 34/81/28 43/93/28 49/110/28
f 41/88/29 52/117/29 51/114/29 40/87/29 49/110/29 50/113/29
f 39/86/30 41/88/30 50/113/30 48/107/30
f 58/135/14 59/139/14 57/132/14
f 55/127/31 56/130/31 62/147/31 61/143/31
f 51/115/32 52/118/32 58/136/32 57/133/32
f 61/144/14 62/146/14 60/140/14
f 52/119/33 53/121/33 59/138/33 58/137/33
f 56/131/34 54/124/34 60/141/34 62/147/34
f 54/125/35 55/128/35 61/145/35 60/142/35
f 53/122/36 51/116/36 57/134/36 59/139/36
