# Blender 3.3.0
# www.blender.org
mtllib keytail.mtl
o Cylinder.001
v -0.402500 1.085205 -0.061453
v -0.263311 1.070851 -0.061453
v -0.129471 1.028340 -0.061453
v -0.006123 0.959307 -0.061453
v 0.101992 0.866404 -0.061453
v 0.190720 0.753201 -0.061453
v 0.256651 0.624048 -0.061453
v 0.297251 0.483909 -0.061453
v 0.310960 0.338170 -0.061453
v 0.297251 0.192431 -0.061453
v 0.256651 0.052292 -0.061453
v -0.402500 0.338170 -0.061453
v -0.525551 1.072515 -0.061453
v -0.263311 1.070851 0.083610
v -0.402500 1.085205 0.083610
v -0.129471 1.028340 0.083610
v -0.006123 0.959307 0.083610
v 0.101992 0.866404 0.083610
v 0.190720 0.753201 0.083610
v 0.256651 0.624048 0.083610
v 0.297251 0.483909 0.083610
v 0.310960 0.338170 0.083610
v 0.297251 0.192431 0.083610
v 0.256651 0.052292 0.083610
v -0.525551 1.072515 0.083610
v -0.402500 0.338170 0.083610
v 0.042880 0.145006 -0.061453
v -0.162020 0.233872 -0.061453
v -0.086833 0.428936 -0.061453
v -0.295360 0.561466 -0.061453
v -0.306742 0.784231 -0.061453
v -0.094663 0.890419 -0.061453
v -0.220069 0.734963 -0.061453
v -0.169034 0.603307 -0.061453
v 0.064065 0.521243 -0.061453
v 0.018438 0.184635 -0.083444
v -0.127980 0.248138 -0.083444
v -0.054138 0.439712 -0.083444
v -0.269465 0.576564 -0.083444
v -0.279257 0.768209 -0.083444
v -0.192374 0.811712 -0.083444
v -0.250468 0.739697 -0.083444
v -0.189436 0.582256 -0.083444
v 0.036351 0.502766 -0.083444
v 0.042880 0.145006 -0.076278
v -0.162020 0.233872 -0.076278
v -0.086833 0.428936 -0.076278
v -0.295360 0.561466 -0.076278
v -0.306742 0.784231 -0.076278
v -0.094663 0.890419 -0.076278
v -0.220069 0.734963 -0.076278
v -0.169034 0.603307 -0.076278
v 0.064065 0.521243 -0.076278
v -0.101768 0.316141 -0.083444
v -0.082382 0.366435 -0.083444
v -0.019159 0.309553 -0.083444
v -0.142864 0.496102 -0.083444
v -0.178892 0.519000 -0.083444
v -0.118659 0.534607 -0.083444
v -0.101768 0.316141 -0.060264
v -0.082382 0.366435 -0.060264
v -0.019159 0.309553 -0.060264
v -0.142864 0.496102 -0.060264
v -0.178892 0.519000 -0.060264
v -0.118659 0.534607 -0.060264
vn -0.0000 -0.0000 -1.0000
vn 0.3027 0.9531 -0.0000
vn -0.0000 -0.0000 1.0000
vn 0.9605 0.2783 -0.0000
vn 0.7871 0.6169 -0.0000
vn 0.9605 -0.2783 -0.0000
vn -0.1026 0.9947 -0.0000
vn 0.4884 0.8726 -0.0000
vn 0.9956 0.0937 -0.0000
vn -0.9862 -0.1653 -0.0000
vn 0.1026 0.9947 -0.0000
vn 0.8907 0.4547 -0.0000
vn -0.3979 -0.9174 -0.0000
vn 0.6517 0.7584 -0.0000
vn 0.9956 -0.0937 -0.0000
vn 0.9324 0.3614 -0.0000
vn -0.9987 -0.0510 -0.0000
vn 0.3321 0.9433 -0.0000
vn -0.4477 0.8942 -0.0000
vn -0.9331 0.3597 -0.0000
vn 0.9984 -0.0562 -0.0000
vn 0.7783 -0.6279 -0.0000
vn -0.5364 -0.8440 -0.0000
vn -0.1034 -0.2384 -0.9657
vn -0.2424 0.0934 -0.9657
vn -0.1394 -0.2193 -0.9657
vn -0.2595 -0.0133 -0.9657
vn -0.1163 0.2323 -0.9657
vn 0.2022 -0.1631 -0.9657
vn 0.2423 0.0939 -0.9657
vn 0.0863 0.2451 -0.9657
vn 0.2594 -0.0146 -0.9657
vn -0.8466 0.5322 -0.0000
vn 0.9331 -0.3597 -0.0000
vn -0.6688 -0.7434 -0.0000
vn 0.2508 -0.9680 -0.0000
vn 0.5364 0.8440 -0.0000
vn 0.0795 0.9968 -0.0000
vt 0.710565 0.614007
vt 0.943835 0.767239
vt 0.637110 0.593774
vt 0.943835 0.692744
vt 0.569061 0.558902
vt 0.943835 0.616281
vt 0.509034 0.510731
vt 0.943835 0.540788
vt 0.459334 0.451112
vt 0.943835 0.469167
vt 0.421873 0.382335
vt 0.943835 0.404170
vt 0.698799 0.981753
vt 0.398089 0.307045
vt 0.698799 0.921435
vt 0.388896 0.228135
vt 0.698799 0.852154
vt 0.394649 0.148636
vt 0.698799 0.776574
vt 0.415125 0.071604
vt 0.698799 0.697599
vt 0.449538 0.000000
vt 0.698799 0.618264
vt 0.785859 0.404170
vt 0.777787 0.212833
vt 0.698799 0.618264
vt 0.785859 0.792578
vt 0.777787 0.618264
vt 0.943836 0.828826
vt 0.698799 1.000000
vt 0.248217 0.024492
vt 0.864847 0.692744
vt 0.321673 0.004258
vt 0.864847 0.767239
vt 0.180168 0.059364
vt 0.864847 0.616281
vt 0.120139 0.107537
vt 0.864847 0.540788
vt 0.070439 0.167156
vt 0.864847 0.469167
vt 0.032977 0.235933
vt 0.864847 0.404170
vt 0.619811 0.981753
vt 0.009193 0.311224
vt 0.619811 0.921435
vt 0.000000 0.390135
vt 0.619811 0.852154
vt 0.005752 0.469634
vt 0.619811 0.776574
vt 0.026229 0.546665
vt 0.619811 0.697599
vt 0.060643 0.618269
vt 0.619811 0.618264
vt 0.864847 0.404170
vt 0.388896 0.000000
vt 0.864847 0.828826
vt 0.777787 1.000000
vt 0.388896 0.405432
vt 0.777787 0.618264
vt 0.864847 0.792578
vt 0.555993 0.069024
vt 0.785859 0.530135
vt 0.611738 0.618264
vt 0.658031 0.135184
vt 0.785859 0.650874
vt 0.550098 0.618264
vt 0.600101 0.233173
vt 0.550098 0.730039
vt 0.566243 0.618264
vt 0.700158 0.323107
vt 0.558171 0.618264
vt 0.566243 0.752708
vt 0.686225 0.443761
vt 0.558171 0.736560
vt 0.533953 0.710222
vt 0.562780 0.481704
vt 0.533953 0.618264
vt 0.603665 0.779712
vt 0.644114 0.409504
vt 0.603665 0.681755
vt 0.628554 0.334210
vt 0.603665 0.618264
vt 0.566243 0.752785
vt 0.510761 0.269166
vt 0.566243 0.618264
vt 0.611738 0.820385
vt 0.869877 0.024991
vt 0.930684 0.087072
vt 0.854118 0.168532
vt 0.934621 0.281751
vt 0.900219 0.380414
vt 0.847471 0.384519
vt 0.891553 0.360125
vt 0.893092 0.268194
vt 0.795539 0.181758
vt 0.777787 0.530135
vt 0.619811 0.618264
vt 0.865703 0.000000
vt 0.777787 0.650874
vt 0.542026 0.618264
vt 0.950798 0.086878
vt 0.542026 0.730039
vt 0.558171 0.618264
vt 0.872837 0.169822
vt 0.550098 0.618264
vt 0.558171 0.752708
vt 0.950798 0.279465
vt 0.550098 0.736560
vt 0.542026 0.710222
vt 0.910810 0.394149
vt 0.542026 0.618264
vt 0.611738 0.779712
vt 0.782055 0.404170
vt 0.611738 0.681755
vt 0.877212 0.351510
vt 0.611738 0.618264
vt 0.574316 0.752785
vt 0.878499 0.274636
vt 0.574316 0.618264
vt 0.619811 0.820385
vt 0.777787 0.185400
vt 0.903505 0.115988
vt 0.491720 0.618264
vt 0.504341 0.662152
vt 0.883404 0.137374
vt 0.491720 0.647332
vt 0.504341 0.663616
vt 0.863196 0.095709
vt 0.504341 0.618264
vt 0.887289 0.215184
vt 0.453855 0.618264
vt 0.900759 0.234128
vt 0.466476 0.642287
vt 0.453855 0.640774
vt 0.867178 0.229635
vt 0.453855 0.641228
vt 0.466476 0.618264
vt 0.603665 0.661525
vt 0.479098 0.618264
vt 0.491720 0.662152
vt 0.574316 0.661525
vt 0.479098 0.647332
vt 0.516963 0.663616
vt 0.590835 0.618264
vt 0.516963 0.618264
vt 0.491720 0.618264
vt 0.466476 0.618264
vt 0.516963 0.634127
vt 0.441233 0.618264
vt 0.533953 0.618264
vt 0.479098 0.642287
vt 0.441233 0.640774
vt 0.466476 0.641228
vt 0.533953 0.652144
vt 0.479098 0.618264
s 0
usemtl Material.003
f 2/3/1 3/5/1 4/7/1 5/9/1 6/11/1 7/14/1 8/16/1 9/18/1 10/20/1 11/22/1 27/61/1 35/84/1 34/81/1 33/79/1 32/76/1 31/73/1 30/70/1 29/67/1 28/64/1 12/25/1 13/28/1 1/1/1
f 3/6/2 2/4/2 14/32/2 16/36/2
f 14/31/3 15/33/3 25/55/3 26/58/3 24/52/3 23/50/3 22/48/3 21/46/3 20/44/3 19/41/3 18/39/3 17/37/3 16/35/3
f 8/17/4 7/15/4 20/45/4 21/47/4
f 6/12/5 5/10/5 18/40/5 19/42/5
f 11/23/6 10/21/6 23/51/6 24/53/6
f 1/2/7 13/29/7 25/56/7 15/34/7
f 4/8/8 3/6/8 16/36/8 17/38/8
f 9/19/9 8/17/9 21/47/9 22/49/9
f 13/30/10 12/26/10 26/59/10 25/57/10
f 2/4/11 1/2/11 15/34/11 14/32/11
f 7/15/12 6/13/12 19/43/12 20/45/12
f 12/27/13 28/65/13 27/62/13 11/24/13 24/54/13 26/60/13
f 5/10/14 4/8/14 17/38/14 18/40/14
f 10/21/15 9/19/15 22/49/15 23/51/15
f 33/80/16 34/82/16 52/116/16 51/114/16
f 37/88/1 54/122/1 56/128/1 55/125/1 38/89/1 57/130/1 59/135/1 58/132/1 39/90/1 40/91/1 41/92/1 42/93/1 43/94/1 44/95/1 36/87/1
f 30/71/17 31/74/17 49/108/17 48/105/17
f 27/62/13 28/65/13 46/99/13 45/96/13
f 34/83/18 35/85/18 53/119/18 52/117/18
f 31/75/19 32/77/19 50/111/19 49/109/19
f 28/66/20 29/68/20 47/102/20 46/100/20
f 35/86/21 27/63/21 45/97/21 53/120/21
f 32/78/22 33/80/22 51/114/22 50/112/22
f 29/69/23 30/72/23 48/106/23 47/103/23
f 37/88/24 36/87/24 45/98/24 46/101/24
f 38/89/25 55/125/25 54/122/25 37/88/25 46/101/25 47/104/25
f 39/90/26 58/132/26 57/130/26 38/89/26 47/104/26 48/107/26
f 40/91/27 39/90/27 48/107/27 49/110/27
f 41/92/28 40/91/28 49/110/28 50/113/28
f 42/93/29 41/92/29 50/113/29 51/115/29
f 43/94/30 42/93/30 51/115/30 52/118/30
f 44/95/31 43/94/31 52/118/31 53/121/31
f 36/87/32 44/95/32 53/121/32 45/98/32
f 61/141/1 62/144/1 60/138/1
f 59/136/33 57/131/33 63/147/33 65/153/33
f 54/123/34 55/126/34 61/142/34 60/139/34
f 64/150/1 65/154/1 63/148/1
f 55/127/35 56/129/35 62/145/35 61/143/35
f 58/133/36 59/137/36 65/155/36 64/151/36
f 57/131/37 58/134/37 64/152/37 63/149/37
f 56/129/38 54/124/38 60/140/38 62/146/38
